<svg width="219" height="149" viewBox="0 0 219 149" fill="none" xmlns="http://www.w3.org/2000/svg">
<g filter="url(#filter0_i_39_476)">
<path d="M186.97 60.0909C187.122 59.1265 187.202 58.1344 187.202 57.1218C187.202 47.6492 180.259 39.97 171.694 39.97C165.327 39.97 159.857 44.214 157.468 50.2839C155.534 48.4363 153.023 47.3208 150.279 47.3208C144.162 47.3208 139.203 52.8668 139.203 59.7082C139.203 60.0892 139.218 60.4661 139.248 60.8383C136.306 62.4324 134.28 65.7772 134.28 69.6454C134.28 75.0583 138.247 79.4464 143.141 79.4464H184.986C189.88 79.4464 193.848 75.0583 193.848 69.6454C193.848 64.9867 190.909 61.0873 186.97 60.0909Z" fill="url(#paint0_linear_39_476)"/>
</g>
<g filter="url(#filter1_f_39_476)">
<rect x="77.2285" y="34" width="100.678" height="94.8051" rx="47.4025" fill="#FFEF9A"/>
</g>
<g filter="url(#filter2_i_39_476)">
<path d="M172.034 81.4026C172.034 106.192 152.126 126.288 127.568 126.288C103.01 126.288 83.1016 106.192 83.1016 81.4026C83.1016 56.6129 103.01 36.517 127.568 36.517C152.126 36.517 172.034 56.6129 172.034 81.4026Z" fill="url(#paint1_linear_39_476)"/>
</g>
<g filter="url(#filter3_i_39_476)">
<path d="M120.69 129.644C120.843 128.68 120.922 127.688 120.922 126.675C120.922 117.203 113.979 109.524 105.415 109.524C99.0476 109.524 93.5769 113.768 91.1886 119.837C89.2538 117.99 86.7433 116.874 83.9997 116.874C77.8822 116.874 72.923 122.42 72.923 129.262C72.923 129.643 72.9384 130.02 72.9685 130.392C70.0261 131.986 68.0001 135.331 68.0001 139.199C68.0001 144.612 71.9674 149 76.8614 149H118.707C123.601 149 127.568 144.612 127.568 139.199C127.568 134.54 124.629 130.641 120.69 129.644Z" fill="url(#paint2_linear_39_476)"/>
</g>
<defs>
<filter id="filter0_i_39_476" x="134.28" y="39.97" width="59.5679" height="49.4764" filterUnits="userSpaceOnUse" color-interpolation-filters="sRGB">
<feFlood flood-opacity="0" result="BackgroundImageFix"/>
<feBlend mode="normal" in="SourceGraphic" in2="BackgroundImageFix" result="shape"/>
<feColorMatrix in="SourceAlpha" type="matrix" values="0 0 0 0 0 0 0 0 0 0 0 0 0 0 0 0 0 0 127 0" result="hardAlpha"/>
<feOffset dy="11"/>
<feGaussianBlur stdDeviation="5"/>
<feComposite in2="hardAlpha" operator="arithmetic" k2="-1" k3="1"/>
<feColorMatrix type="matrix" values="0 0 0 0 1 0 0 0 0 1 0 0 0 0 1 0 0 0 1 0"/>
<feBlend mode="normal" in2="shape" result="effect1_innerShadow_39_476"/>
</filter>
<filter id="filter1_f_39_476" x="0.228516" y="-43" width="254.678" height="248.805" filterUnits="userSpaceOnUse" color-interpolation-filters="sRGB">
<feFlood flood-opacity="0" result="BackgroundImageFix"/>
<feBlend mode="normal" in="SourceGraphic" in2="BackgroundImageFix" result="shape"/>
<feGaussianBlur stdDeviation="38.5" result="effect1_foregroundBlur_39_476"/>
</filter>
<filter id="filter2_i_39_476" x="83.1016" y="36.517" width="88.9321" height="94.7712" filterUnits="userSpaceOnUse" color-interpolation-filters="sRGB">
<feFlood flood-opacity="0" result="BackgroundImageFix"/>
<feBlend mode="normal" in="SourceGraphic" in2="BackgroundImageFix" result="shape"/>
<feColorMatrix in="SourceAlpha" type="matrix" values="0 0 0 0 0 0 0 0 0 0 0 0 0 0 0 0 0 0 127 0" result="hardAlpha"/>
<feOffset dy="5"/>
<feGaussianBlur stdDeviation="9"/>
<feComposite in2="hardAlpha" operator="arithmetic" k2="-1" k3="1"/>
<feColorMatrix type="matrix" values="0 0 0 0 1 0 0 0 0 1 0 0 0 0 1 0 0 0 0.81 0"/>
<feBlend mode="normal" in2="shape" result="effect1_innerShadow_39_476"/>
</filter>
<filter id="filter3_i_39_476" x="68" y="109.524" width="59.5679" height="49.4764" filterUnits="userSpaceOnUse" color-interpolation-filters="sRGB">
<feFlood flood-opacity="0" result="BackgroundImageFix"/>
<feBlend mode="normal" in="SourceGraphic" in2="BackgroundImageFix" result="shape"/>
<feColorMatrix in="SourceAlpha" type="matrix" values="0 0 0 0 0 0 0 0 0 0 0 0 0 0 0 0 0 0 127 0" result="hardAlpha"/>
<feOffset dy="11"/>
<feGaussianBlur stdDeviation="5"/>
<feComposite in2="hardAlpha" operator="arithmetic" k2="-1" k3="1"/>
<feColorMatrix type="matrix" values="0 0 0 0 1 0 0 0 0 1 0 0 0 0 1 0 0 0 1 0"/>
<feBlend mode="normal" in2="shape" result="effect1_innerShadow_39_476"/>
</filter>
<linearGradient id="paint0_linear_39_476" x1="138.069" y1="75.9217" x2="202.746" y2="32.5963" gradientUnits="userSpaceOnUse">
<stop stop-color="white"/>
<stop offset="1" stop-color="white" stop-opacity="0.58"/>
</linearGradient>
<linearGradient id="paint1_linear_39_476" x1="120.813" y1="105.834" x2="157.92" y2="41.3622" gradientUnits="userSpaceOnUse">
<stop stop-color="#FF9900"/>
<stop offset="1" stop-color="#FFEE94"/>
</linearGradient>
<linearGradient id="paint2_linear_39_476" x1="71.7888" y1="145.475" x2="136.466" y2="102.15" gradientUnits="userSpaceOnUse">
<stop stop-color="white"/>
<stop offset="1" stop-color="white" stop-opacity="0.58"/>
</linearGradient>
</defs>
</svg>
