<svg width="64" height="64" viewBox="0 0 64 64" fill="none" xmlns="http://www.w3.org/2000/svg">
<mask id="mask0_518_3792" style="mask-type:luminance" maskUnits="userSpaceOnUse" x="5" y="5" width="54" height="54">
<path d="M5.3335 5.33317H58.6668V58.6665H5.3335V5.33317Z" fill="white"/>
</mask>
<g mask="url(#mask0_518_3792)">
<path d="M58.5734 48.422L56.7527 43.3921H49.9739L48.1534 48.422C48.0138 48.8078 48.0314 49.2329 48.2024 49.6056L51.9434 57.7558C52.198 58.3108 52.7527 58.6665 53.3634 58.6665C53.9741 58.6665 54.5288 58.3108 54.7835 57.7558L58.5242 49.6056C58.6953 49.2329 58.7129 48.8078 58.5734 48.422Z" fill="#E9D9D9"/>
<path d="M58.5737 48.422L56.753 43.3921H53.3638V58.6665C53.9744 58.6665 54.5291 58.3108 54.7838 57.7558L58.5245 49.6056C58.6956 49.2329 58.7132 48.8078 58.5737 48.422Z" fill="#D7C7C3"/>
<path d="M43.4616 5.33317H6.896C6.03308 5.33317 5.3335 6.03275 5.3335 6.89567V57.104C5.3335 57.9669 6.03308 58.6665 6.896 58.6665H43.4616C44.3245 58.6665 45.0241 57.9669 45.0241 57.104V6.89567C45.0241 6.03275 44.3245 5.33317 43.4616 5.33317Z" fill="#E2F1FB"/>
<path d="M43.4615 5.33317H25.1787V58.6665H43.4615C44.3244 58.6665 45.024 57.9669 45.024 57.104V6.89567C45.024 6.03275 44.3244 5.33317 43.4615 5.33317Z" fill="#B9DBF5"/>
<path d="M40.063 20.2998H30.1401C29.2772 20.2998 28.5776 19.6002 28.5776 18.7373C28.5776 17.8744 29.2772 17.1748 30.1401 17.1748H40.063C40.9259 17.1748 41.6255 17.8744 41.6255 18.7373C41.6255 19.6002 40.9259 20.2998 40.063 20.2998Z" fill="#63AEE8"/>
<path d="M40.063 29.7793H30.1401C29.2772 29.7793 28.5776 29.0797 28.5776 28.2168C28.5776 27.3539 29.2772 26.6543 30.1401 26.6543H40.063C40.9259 26.6543 41.6255 27.3539 41.6255 28.2168C41.6255 29.0797 40.9259 29.7793 40.063 29.7793Z" fill="#63AEE8"/>
<path d="M40.063 39.2593H30.1401C29.2772 39.2593 28.5776 38.5597 28.5776 37.6968C28.5776 36.8339 29.2772 36.1343 30.1401 36.1343H40.063C40.9259 36.1343 41.6255 36.8339 41.6255 37.6968C41.6255 38.5597 40.9259 39.2593 40.063 39.2593Z" fill="#63AEE8"/>
<path d="M40.063 49.1016H30.1401C29.2772 49.1016 28.5776 48.402 28.5776 47.5391C28.5776 46.6761 29.2772 45.9766 30.1401 45.9766H40.063C40.9259 45.9766 41.6255 46.6761 41.6255 47.5391C41.6255 48.402 40.9259 49.1016 40.063 49.1016Z" fill="#63AEE8"/>
<path d="M14.1157 22.1655C13.7012 22.1655 13.3038 22.0009 13.0109 21.7078L10.7741 19.471C10.1638 18.8608 10.1638 17.8716 10.7741 17.2614C11.3843 16.6512 12.3737 16.6512 12.9838 17.2614L14.1157 18.3933L17.757 14.7521C18.3671 14.1419 19.3565 14.1419 19.9666 14.7521C20.5768 15.3623 20.5768 16.3516 19.9666 16.9618L15.2205 21.7079C14.9276 22.0008 14.5302 22.1655 14.1157 22.1655Z" fill="#248EE1"/>
<path d="M14.1157 31.645C13.7012 31.645 13.3038 31.4804 13.0109 31.1873L10.7741 28.9505C10.1638 28.3403 10.1638 27.3511 10.7741 26.7409C11.3843 26.1306 12.3737 26.1306 12.9838 26.7409L14.1157 27.8728L17.757 24.2316C18.3671 23.6214 19.3565 23.6214 19.9666 24.2316C20.5768 24.8418 20.5768 25.8311 19.9666 26.4413L15.2205 31.1874C14.9276 31.4803 14.5302 31.645 14.1157 31.645Z" fill="#248EE1"/>
<path d="M14.1157 41.1245C13.7012 41.1245 13.3038 40.9599 13.0109 40.6668L10.7741 38.43C10.1638 37.8198 10.1638 36.8306 10.7741 36.2203C11.3843 35.6101 12.3737 35.6101 12.9838 36.2203L14.1157 37.3523L17.757 33.7111C18.3671 33.101 19.3565 33.1009 19.9666 33.7111C20.5768 34.3213 20.5768 35.3107 19.9666 35.9208L15.2205 40.6669C14.9276 40.9598 14.5302 41.1245 14.1157 41.1245Z" fill="#248EE1"/>
<path d="M58.6668 10.6363V43.1978C58.6668 44.0613 57.9668 44.7603 57.1043 44.7603H49.623C48.7596 44.7603 48.0605 44.0613 48.0605 43.1978V10.6363C48.0605 7.71233 50.4397 5.33317 53.3637 5.33317C56.2876 5.33317 58.6668 7.71233 58.6668 10.6363Z" fill="#248EE1"/>
<path d="M53.3638 5.33317V44.7603H57.1044C57.9669 44.7603 58.6669 44.0613 58.6669 43.1978V10.6363C58.6669 7.71234 56.2877 5.33317 53.3638 5.33317Z" fill="#1E80D3"/>
<path d="M58.6668 18.3447H48.0605V15.2197H58.6668V18.3447Z" fill="#B9DBF5"/>
<path d="M58.6669 15.2197H53.3638V18.3447H58.6669V15.2197Z" fill="#439DE5"/>
</g>
</svg>
