<svg width="192" height="70" viewBox="0 0 192 70" fill="none" xmlns="http://www.w3.org/2000/svg">
<path d="M55.9549 33.167H52.6458C52.1193 33.167 51.6869 33.5994 51.6869 34.1447C51.6869 34.2951 51.7245 34.4643 51.7997 34.5959L61.8212 52.7775H72.3879L65.732 39.1084C63.833 35.442 60.0726 33.167 55.9549 33.167Z" fill="url(#paint0_linear_164_12454)"/>
<path d="M72.3879 52.7585H61.8023L106.307 0L72.3879 52.7585Z" fill="#66CD00"/>
<path d="M127.252 56.124C130.937 56.124 133.927 59.1135 133.927 62.7987C133.927 66.4839 130.937 69.4735 127.252 69.4735C123.567 69.4735 120.578 66.4839 120.578 62.7987C120.596 59.1135 123.586 56.1428 127.252 56.124Z" fill="#329AD6"/>
<path d="M43.7899 15.0791C46.1026 15.474 47.9828 17.1473 48.622 19.4036C49.5433 22.5623 47.7195 25.8715 44.5608 26.7928C44.0155 26.962 43.4327 27.0372 42.8686 27.0372C39.5783 27.0372 36.852 24.3297 36.852 21.0958C36.8332 17.749 39.5218 15.0415 42.8498 15.0227C43.1694 15.0227 43.4891 15.0415 43.7899 15.0791Z" fill="#329AD6"/>
<path d="M43.5268 32.9033H46.7608C47.306 32.9033 47.7385 33.3358 47.7385 33.881V64.0771C47.7385 66.9914 45.3694 69.3605 42.4551 69.3605H38.9955C38.4503 69.3605 37.999 68.928 37.999 68.364V38.4311C37.9802 35.3664 40.4621 32.9033 43.5268 32.9033C43.508 32.9033 43.508 32.9033 43.5268 32.9033Z" fill="#329AD6"/>
<path d="M106.288 64.6414C104.445 67.4993 101.005 69.9999 95.6647 69.9999C87.9747 69.9999 83.2742 64.7918 83.2742 59.1512C83.2742 52.7021 88.0311 49.1109 94.0478 48.2272L102.922 46.911C104.972 46.6102 105.63 45.5949 105.63 44.354C105.63 41.7969 103.656 39.6534 99.5568 39.6534C95.7399 39.6534 93.4649 41.8345 92.8256 44.542C92.7128 45.0684 92.1864 45.4069 91.6599 45.2941L90.8138 45.106C86.4705 44.1847 84.91 38.7133 88.2191 35.7426C90.8138 33.4112 94.5742 31.7942 99.5004 31.7942C110.932 31.7942 115.181 38.2433 115.181 45.5009V63.9081C115.181 66.9164 112.737 69.3795 109.71 69.3795H107.303C106.777 69.3795 106.344 68.947 106.325 68.4206L106.288 64.6414ZM105.63 54.3754V52.7585L97.4885 53.9994C95.0067 54.3754 93.0136 55.748 93.0136 58.5495C93.0136 60.6741 94.5554 62.7235 97.7142 62.7235C101.813 62.7235 105.63 60.7493 105.63 54.3754Z" fill="#329AD6"/>
<path d="M161.434 64.6414C159.61 67.4993 156.151 69.9999 150.811 69.9999C143.121 69.9999 138.421 64.7918 138.421 59.1512C138.421 52.7021 143.177 49.1109 149.194 48.2272L158.069 46.911C160.118 46.6102 160.776 45.5949 160.776 44.354C160.776 41.7969 158.802 39.6534 154.703 39.6534C150.886 39.6534 148.611 41.8345 147.972 44.542C147.859 45.0684 147.333 45.4069 146.806 45.2941L145.96 45.106C141.617 44.1847 140.056 38.7133 143.366 35.7426C145.96 33.4112 149.721 31.7942 154.647 31.7942C166.078 31.7942 170.328 38.2433 170.328 45.5009V63.9081C170.328 66.9164 167.883 69.3795 164.856 69.3795H162.45C161.923 69.3795 161.491 68.947 161.472 68.4206L161.434 64.6414ZM160.776 54.3754V52.7585L152.635 53.9994C150.153 54.3754 148.16 55.748 148.16 58.5495C148.16 60.6741 149.702 62.7235 152.861 62.7235C156.959 62.7235 160.776 60.7493 160.776 54.3754Z" fill="#329AD6"/>
<path d="M174.991 63.8139V33.8998C174.991 33.3546 175.442 32.9033 175.987 32.9033H179.447C182.361 32.9033 184.73 35.2724 184.73 38.1867V68.364C184.73 68.9092 184.298 69.3417 183.752 69.3417H180.518C177.472 69.3417 174.991 66.8598 174.991 63.8139Z" fill="#329AD6"/>
<path d="M62.2159 55.2405V68.3455C62.2159 68.8908 62.6672 69.342 63.2124 69.342H66.672C69.5863 69.342 71.9554 66.973 71.9554 64.0586V55.2405H62.2159Z" fill="#329AD6"/>
<path d="M191.405 7.76527C191.405 7.0884 190.991 6.63715 190.314 6.61835C189.449 6.59955 188.585 6.59955 187.72 6.61835C187.024 6.63715 186.629 7.0696 186.61 7.74647C186.573 8.21652 186.573 8.68657 186.61 9.15663C186.742 10.3035 186.291 11.2437 185.557 12.0709C184.335 13.4623 182.944 14.4964 180.932 14.2896C180.086 14.2332 179.24 14.2332 178.413 14.2896C177.397 14.3084 176.796 14.8536 176.758 15.8125C176.72 17.1099 176.72 18.4072 176.758 19.7046C176.796 20.7011 177.435 21.2651 178.431 21.2651H180.274C180.913 21.2651 181.553 21.2651 182.192 21.2651C183.132 21.2651 183.715 20.6635 183.734 19.7234C183.734 18.6517 183.734 17.5799 183.734 16.5082C183.734 13.9699 186.309 11.4129 188.848 11.4129C189.337 11.4129 189.825 11.4317 190.333 11.4129C191.048 11.3941 191.386 11.0556 191.405 10.3412C191.405 9.49506 191.405 8.63016 191.405 7.76527Z" fill="#329AD6"/>
<path d="M190.258 14.3082H187.231C186.742 14.3082 186.366 14.703 186.366 15.1731V18.0498C186.366 20.8325 184.617 23.3896 181.966 24.2168C177.491 25.627 173.374 22.3178 173.374 18.0498C173.374 14.4586 176.288 11.5631 179.86 11.5631H182.831C183.32 11.5631 183.696 11.1682 183.696 10.6982V7.65225C183.696 7.1634 183.301 6.78735 182.831 6.78735H179.804C179.315 6.78735 178.939 7.1822 178.939 7.65225V9.11881C174.22 9.60766 170.704 13.6689 170.892 18.407C171.061 23.0323 174.897 26.8491 179.522 27.0371C184.204 27.2252 188.246 23.7656 188.791 19.1027H190.277C190.766 19.1027 191.142 18.7078 191.142 18.2378V15.2107C191.123 14.703 190.747 14.3082 190.258 14.3082Z" fill="#329AD6"/>
<path d="M34.0882 66.1644C32.302 67.7626 27.6955 71.0529 22.8445 68.2514C22.8445 68.2514 15.6998 63.6261 8.5926 49.4118L14.3084 44.0908C14.3084 44.0908 22.9198 54.902 34.0506 64.6979C34.4642 65.0363 34.5018 65.6568 34.1634 66.0704C34.1634 66.108 34.1258 66.1456 34.0882 66.1644Z" fill="url(#paint1_linear_164_12454)"/>
<path d="M33.3548 26.3229C31.4182 24.6307 26.0408 20.7763 20.9643 24.6307C20.9643 24.6307 14.252 30.3653 9.90868 40.2552V22.1488C9.90868 18.5012 6.95676 15.5305 3.29036 15.5305H0.977709C0.432449 15.5305 0 15.963 0 16.5082V60.8058C0 65.5063 3.81682 69.3044 8.49853 69.3044H8.89336C9.43862 69.3044 9.88988 68.8531 9.90868 68.3078V51.9125L33.4112 27.7142C33.7873 27.3194 33.7873 26.6989 33.4112 26.3229C33.3924 26.3417 33.3736 26.3417 33.3548 26.3229Z" fill="#329AD6"/>
<path d="M0 20.231V48.2084C1.8426 45.4069 3.08353 40.1987 3.08353 34.2197C3.08353 28.2406 1.8426 23.0325 0 20.231Z" fill="#55B5E5"/>
<path d="M20.9643 24.6306C20.9643 24.6306 14.252 30.3652 9.90869 40.2551V45.5573C13.8571 33.2043 21.9044 25.6647 21.9044 25.6647C24.7247 23.3145 27.7518 23.3709 30.2713 24.1982C27.733 22.9008 24.2923 22.1111 20.9643 24.6306Z" fill="url(#paint2_linear_164_12454)"/>
<defs>
<linearGradient id="paint0_linear_164_12454" x1="56.56" y1="33.4586" x2="67.6777" y2="52.6724" gradientUnits="userSpaceOnUse">
<stop stop-color="#66CD00"/>
<stop offset="0.11" stop-color="#5DBB00"/>
<stop offset="0.38" stop-color="#499300"/>
<stop offset="0.63" stop-color="#3B7500"/>
<stop offset="0.84" stop-color="#326300"/>
<stop offset="1" stop-color="#2F5D00"/>
</linearGradient>
<linearGradient id="paint1_linear_164_12454" x1="10.0032" y1="47.5368" x2="27.271" y2="65.4401" gradientUnits="userSpaceOnUse">
<stop offset="0.12" stop-color="#103246"/>
<stop offset="0.24" stop-color="#12374C"/>
<stop offset="0.4" stop-color="#16445E"/>
<stop offset="0.58" stop-color="#1D597C"/>
<stop offset="0.79" stop-color="#2676A5"/>
<stop offset="1" stop-color="#329AD6"/>
</linearGradient>
<linearGradient id="paint2_linear_164_12454" x1="9.90681" y1="34.2718" x2="30.2675" y2="34.2718" gradientUnits="userSpaceOnUse">
<stop stop-color="#1A5070"/>
<stop offset="0.16" stop-color="#1C5576"/>
<stop offset="0.39" stop-color="#206288"/>
<stop offset="0.66" stop-color="#2777A6"/>
<stop offset="0.95" stop-color="#3094CE"/>
<stop offset="1" stop-color="#329AD6"/>
</linearGradient>
</defs>
</svg>
