<svg width="21" height="21" viewBox="0 0 21 21" fill="none" xmlns="http://www.w3.org/2000/svg">
<path d="M20.5202 1.16102C20.5202 0.484148 20.1066 0.0329036 19.4297 0.0141015C18.5648 -0.00470051 17.6999 -0.00470051 16.835 0.0141015C16.1394 0.0329036 15.7445 0.465351 15.7257 1.14222C15.6881 1.61228 15.6881 2.08233 15.7257 2.55238C15.8573 3.6993 15.4061 4.6394 14.6728 5.46669C13.4507 6.85805 12.0593 7.89216 10.0475 7.68533C9.20141 7.62893 8.35531 7.62893 7.52802 7.68533C6.51271 7.70413 5.91104 8.2494 5.87343 9.2083C5.83583 10.5056 5.83583 11.803 5.87343 13.1003C5.91104 14.0968 6.55031 14.6609 7.54682 14.6609H9.38943C10.0287 14.6609 10.668 14.6609 11.3072 14.6609C12.2473 14.6609 12.8302 14.0592 12.849 13.1191C12.849 12.0474 12.849 10.9757 12.849 9.90397C12.849 7.3657 15.4249 4.80862 17.9632 4.80862C18.452 4.80862 18.9409 4.82742 19.4485 4.80862C20.163 4.78982 20.5014 4.45138 20.5202 3.7369C20.5202 2.89081 20.5202 2.02592 20.5202 1.16102Z" fill="#329AD6"/>
<path d="M19.3733 7.70392H16.3462C15.8573 7.70392 15.4813 8.09877 15.4813 8.56882V11.4455C15.4813 14.2282 13.7327 16.7853 11.0816 17.6126C6.60672 19.0227 2.48906 15.7136 2.48906 11.4455C2.48906 7.85434 5.40338 4.95882 8.97576 4.95882H11.9465C12.4353 4.95882 12.8114 4.56398 12.8114 4.09393V1.048C12.8114 0.559147 12.4165 0.183105 11.9465 0.183105H8.91937C8.43052 0.183105 8.05446 0.577949 8.05446 1.048V2.51456C3.33515 3.00341 -0.180821 7.06465 0.00719958 11.8028C0.176418 16.4281 4.01204 20.2449 8.63734 20.4329C13.3191 20.6209 17.3615 17.1613 17.9067 12.4984H19.3921C19.881 12.4984 20.257 12.1036 20.257 11.6335V8.60642C20.2382 8.09876 19.8622 7.70392 19.3733 7.70392Z" fill="#329AD6"/>
</svg>
